<?xml version="1.0" encoding="utf-8"?>
<!-- Generator: Adobe Illustrator 22.0.0, SVG Export Plug-In . SVG Version: 6.00 Build 0)  -->
<svg version="1.1" id="Calque_1" xmlns="http://www.w3.org/2000/svg" xmlns:xlink="http://www.w3.org/1999/xlink" x="0px" y="0px"
	 viewBox="0 0 300 300" style="enable-background:new 0 0 300 300;" xml:space="preserve">
<style type="text/css">
	.st0{fill:#010101;}
	.st1{fill:#FFFFFF;}
	.st2{fill:none;}
</style>
<g>
	<rect x="37.4" y="251.4" class="st0" width="222.7" height="15.4"/>
	<rect x="45.1" y="51.8" class="st0" width="15.4" height="222.7"/>
	<path class="st0" d="M214.1,190c0-4.2,3.4-7.7,7.7-7.7h15.4c4.2,0,7.7,3.4,7.7,7.7v53.8h-30.7V190z"/>
	<path class="st0" d="M168,167c0-4.2,3.4-7.7,7.7-7.7H191c4.2,0,7.7,3.4,7.7,7.7v76.8H168V167z"/>
	<path class="st0" d="M121.9,120.9c0-4.2,3.4-7.7,7.7-7.7H145c4.2,0,7.7,3.4,7.7,7.7v122.9h-30.7V120.9z"/>
	<path class="st0" d="M75.8,143.9c0-4.2,3.4-7.7,7.7-7.7h15.4c4.2,0,7.7,3.4,7.7,7.7v99.8H75.8V143.9z"/>
</g>
</svg>
