<?xml version="1.0" encoding="utf-8"?>
<!-- Generator: Adobe Illustrator 22.0.0, SVG Export Plug-In . SVG Version: 6.00 Build 0)  -->
<svg version="1.1" id="Calque_1" xmlns="http://www.w3.org/2000/svg" xmlns:xlink="http://www.w3.org/1999/xlink" x="0px" y="0px"
	 viewBox="0 0 300 300" style="enable-background:new 0 0 300 300;" xml:space="preserve">
<style type="text/css">
	.st0{fill:#010101;}
	.st1{fill:#FFFFFF;}
	.st2{fill:none;}
</style>
<g>
	<path class="st0" d="M237.9,227.4H61.8c-10,0-18.1-8.1-18.1-18.1V103.6c0-10,8.1-18.1,18.1-18.1h176.4c10,0,18.1,8.1,18.1,18.1V209
		C256.1,219.2,247.9,227.4,237.9,227.4z M61.8,91.2c-6.8,0-12.4,5.5-12.4,12.4V209c0,6.8,5.5,12.4,12.4,12.4h176.4
		c6.8,0,12.4-5.5,12.4-12.4V103.6c0-6.8-5.5-12.4-12.4-12.4H61.8z"/>
	<path class="st0" d="M237.9,227.4H61.8c-5,0-9.7-2.1-13.1-5.5l-1.8-2.1l65.7-65.7l28.7,28.7c4.7,4.7,12.9,4.7,17.6,0l28.7-28.7
		l65.7,65.7l-1.8,2.1C247.6,225.3,242.9,227.4,237.9,227.4z M55,219.5c2.1,1.3,4.5,2.1,6.8,2.1h176.4c2.4,0,4.7-0.8,6.8-2.1
		l-57.6-57.6l-24.7,24.7c-7.1,7.1-18.7,7.1-25.8,0l-24.7-24.7L55,219.5z"/>
	<path class="st0" d="M149.9,192.2c-5,0-9.5-1.8-12.9-5.3L45.5,95.2l1.3-2.1c3.4-4.7,8.9-7.6,14.7-7.6h176.4
		c5.8,0,11.3,2.9,14.7,7.6l1.3,2.1l-91.2,91.5C159.3,190,154.6,192.2,149.9,192.2z M53.1,94.6l87.8,87.8c4.7,4.7,12.9,4.7,17.6,0
		l87.8-87.8c-2.4-2.1-5.3-3.4-8.7-3.4H61.8C58.4,91.2,55.5,92.5,53.1,94.6z"/>
</g>
</svg>
