<?xml version="1.0" encoding="utf-8"?>
<!-- Generator: Adobe Illustrator 22.0.0, SVG Export Plug-In . SVG Version: 6.00 Build 0)  -->
<svg version="1.1" id="Calque_1" xmlns="http://www.w3.org/2000/svg" xmlns:xlink="http://www.w3.org/1999/xlink" x="0px" y="0px"
	 viewBox="0 0 300 300" style="enable-background:new 0 0 300 300;" xml:space="preserve">
<style type="text/css">
	.st0{fill:#010101;}
	.st1{fill:#FFFFFF;}
	.st2{fill:none;}
</style>
<path d="M149.4,38.7h1.3c22.6,0,43.6,6.6,63.2,19.9c4,2.8,8.2,6.3,12.6,10.4c5.3,5.2,8.7,8.9,10.3,11.1c4.1,5.3,7.2,9.7,9.3,13.4
	c10.1,17.6,15.2,36.2,15.2,55.8v1.3c0,22.6-6.6,43.6-19.9,63.2c-2.8,4-6.3,8.2-10.4,12.6c-5.2,5.3-8.9,8.7-11.1,10.3
	c-5.3,4.1-9.7,7.2-13.4,9.3c-17.6,10.1-36.2,15.2-55.8,15.2h-1.3c-22.6,0-43.6-6.6-63.2-19.9c-4-2.8-8.2-6.3-12.6-10.4
	c-5.3-5.2-8.7-8.9-10.3-11.1c-4.1-5.3-7.2-9.7-9.3-13.4c-10.1-17.6-15.2-36.2-15.2-55.8v-1.3c0-22.6,6.6-43.6,19.9-63.2
	c2.8-4,6.3-8.2,10.4-12.6c5.2-5.3,8.9-8.7,11.1-10.3c5.3-4.1,9.7-7.2,13.4-9.3C111.2,43.8,129.8,38.7,149.4,38.7z M99.6,64
	c-3.4,1.9-7.4,4.7-12,8.4c-2.1,1.4-5.4,4.4-10,9.2c-3.7,4-6.8,7.7-9.3,11.2c-11.9,17.6-17.9,36.5-17.9,56.6v1.3
	c0,17.5,4.5,34.1,13.6,49.8c1.9,3.4,4.7,7.4,8.4,12c1.4,2.1,4.4,5.4,9.2,10c4,3.7,7.7,6.8,11.2,9.3c17.6,11.9,36.5,17.9,56.6,17.9
	h1.3c17.5,0,34.1-4.5,49.8-13.6c3.4-1.9,7.4-4.7,12-8.4c2.1-1.4,5.4-4.4,10-9.2c3.7-4,6.8-7.7,9.3-11.2
	c11.9-17.6,17.9-36.5,17.9-56.6v-1.3c0-17.5-4.5-34.1-13.6-49.8c-1.9-3.4-4.7-7.4-8.4-12c-1.4-2.1-4.4-5.4-9.2-10
	c-4-3.7-7.7-6.8-11.2-9.3c-17.6-11.9-36.5-17.9-56.6-17.9h-1.3C131.9,50.4,115.3,54.9,99.6,64z M159.6,82.7c0,0-2,0.8-6,2.4
	c-6.1,2.4-10.6,6.2-13.6,11.2c-3.1,5.3-4.6,11.3-4.6,18.2v18.3h-21v0.2v24.2v0.2h21v62.4h0.2h25h0.2v-62.4h21
	c0.1-0.7,1.2-8.9,3.2-24.3c0-0.1-0.1-0.2-0.2-0.2h-24v-13.6c0-3.8,0.2-6.2,0.5-7.1c0-0.3,0.3-1.1,0.9-2.4c0.9-1.6,2.5-2.7,4.6-3.5
	c1.4-0.5,4-0.8,7.7-0.8h11.2v-0.2V83.8v-0.2c-5.8-0.6-11.9-0.9-18.3-0.9h-0.6C162,82.7,159.6,82.7,159.6,82.7z"/>
</svg>
