<?xml version="1.0" encoding="utf-8"?>
<!-- Generator: Adobe Illustrator 22.0.0, SVG Export Plug-In . SVG Version: 6.00 Build 0)  -->
<svg version="1.1" id="Calque_1" xmlns="http://www.w3.org/2000/svg" xmlns:xlink="http://www.w3.org/1999/xlink" x="0px" y="0px"
	 viewBox="0 0 300 300" style="enable-background:new 0 0 300 300;" xml:space="preserve">
<style type="text/css">
	.st0{fill:#010101;}
	.st1{fill:#FFFFFF;}
	.st2{fill:none;}
</style>
<path class="st0" d="M222.2,215.6l25.1,53.9l-28.1-0.8l-17.5,22l-22.5-48.3l0,0.1c-2.7,4.1-8.3,5.2-12.4,2.5l-9.4-6.3
	c-4.1-2.7-10.8-2.7-14.8,0l-9.4,6.3c-4.1,2.7-9.7,1.6-12.4-2.5l0-0.1l-22.5,48.3l-17.5-22l-28.1,0.8l25.1-53.9l-0.8-4.2
	c-1-4.8-5.7-9.5-10.5-10.5l-11.2-2.2c-4.8-1-8-5.7-7-10.5l2.2-11.2c1-4.8-1.6-11-5.7-13.7l-9.5-6.3c-4.1-2.7-5.2-8.3-2.5-12.4
	l6.3-9.4c2.7-4.1,2.7-10.8,0-14.8l-6.3-9.4c-2.7-4.1-1.6-9.7,2.5-12.4l9.5-6.3c4.1-2.7,6.6-8.9,5.7-13.7l-2.2-11.2
	c-1-4.8,2.2-9.5,7-10.5l11.2-2.2c4.8-1,9.5-5.7,10.5-10.5l2.2-11.2c1-4.8,5.7-8,10.5-7l11.2,2.2c4.8,1,11-1.6,13.7-5.7l6.3-9.5
	c2.7-4.1,8.3-5.2,12.4-2.5l9.4,6.3c4.1,2.7,10.8,2.7,14.8,0l9.4-6.3c4.1-2.7,9.7-1.6,12.4,2.5l6.3,9.5c2.7,4.1,8.9,6.6,13.7,5.7
	l11.2-2.2c4.8-1,9.5,2.2,10.5,7l2.2,11.2c1,4.8,5.7,9.5,10.5,10.5l11.2,2.2c4.8,1,8,5.7,7,10.5l-2.2,11.2c-1,4.8,1.6,11,5.7,13.7
	l9.5,6.3c4.1,2.7,5.2,8.3,2.5,12.4l-6.3,9.4c-2.7,4.1-2.7,10.8,0,14.8l6.3,9.4c2.7,4.1,1.6,9.7-2.5,12.4l-9.5,6.3
	c-4.1,2.7-6.6,8.9-5.7,13.7l2.2,11.2c1,4.8-2.2,9.5-7,10.5l-11.2,2.2c-4.8,1-9.5,5.7-10.5,10.5L222.2,215.6z M218,227.5
	c-2,1.8-4.8,2.6-7.6,2.1l-11.2-2.2c-4.8-1-11,1.6-13.7,5.7l-0.5,0.7l18.7,40.2l11.3-14.2l18.2,0.5L218,227.5z M115,233.8l-0.5-0.7
	c-2.7-4.1-8.9-6.6-13.7-5.7l-11.2,2.2c-2.8,0.6-5.6-0.3-7.6-2.1l-15.2,32.7l18.2-0.5l11.3,14.2L115,233.8z M170,228.7
	c0,0,5.8-8.7,5.8-8.7c4.3-6.5,13.3-10.2,21-8.7l10.2,2.1c0,0,2-10.3,2-10.3c1.5-7.7,8.4-14.6,16.1-16.1l10.3-2c0,0-2-10.3-2-10.3
	c-1.5-7.6,2.2-16.7,8.7-21l8.7-5.8c0,0-5.8-8.7-5.8-8.7c-4.3-6.5-4.4-16.2,0-22.7l5.8-8.7c0,0-8.7-5.8-8.7-5.8
	c-6.5-4.3-10.2-13.3-8.7-21l2.1-10.2c0,0-10.3-2-10.3-2c-7.7-1.5-14.6-8.4-16.1-16.1l-2-10.3c0,0-10.3,2-10.3,2
	c-7.6,1.5-16.7-2.2-21-8.7l-5.8-8.7c0,0-8.7,5.8-8.7,5.8c-6.5,4.3-16.2,4.4-22.7,0L130,27c0,0-5.8,8.7-5.8,8.7
	c-4.3,6.5-13.3,10.2-21,8.7l-10.2-2.1c0,0-2,10.3-2,10.3c-1.5,7.7-8.4,14.6-16.1,16.1l-10.3,2c0,0,2,10.3,2,10.3
	c1.5,7.6-2.2,16.7-8.7,21l-8.7,5.8c0,0,5.8,8.7,5.8,8.7c4.3,6.5,4.4,16.2,0,22.7l-5.8,8.7c0,0,8.7,5.8,8.7,5.8
	c6.5,4.3,10.2,13.3,8.7,21L64.5,185c0,0,10.3,2,10.3,2c7.7,1.5,14.6,8.4,16.1,16.1l2,10.3c0,0,10.3-2,10.3-2
	c7.6-1.5,16.7,2.2,21,8.7l5.8,8.7c0,0,8.7-5.8,8.7-5.8c6.5-4.3,16.2-4.4,22.7,0L170,228.7z M150,207.9c-44.2,0-80-35.8-80-80
	s35.8-80,80-80c44.2,0,80,35.8,80,80S194.2,207.9,150,207.9z M150,199c39.3,0,71.1-31.8,71.1-71.1S189.3,56.7,150,56.7
	c-39.3,0-71.1,31.8-71.1,71.1S110.7,199,150,199z M117.1,128.8l2.7-2.7c1.7-1.7,4.5-1.7,6.2,0l11.6,11.6c1.7,1.7,4.5,1.7,6.3-0.1
	l29.2-29.2c1.8-1.8,4.5-1.8,6.3,0l2.7,2.7c1.7,1.7,1.7,4.5-0.1,6.3l-35,35c-3.5,3.5-9.1,3.4-12.6,0l-17.2-17.2
	C115.4,133.3,115.4,130.5,117.1,128.8z"/>
</svg>
