<?xml version="1.0" encoding="utf-8"?>
<!-- Generator: Adobe Illustrator 22.0.0, SVG Export Plug-In . SVG Version: 6.00 Build 0)  -->
<svg version="1.1" id="Calque_1" xmlns="http://www.w3.org/2000/svg" xmlns:xlink="http://www.w3.org/1999/xlink" x="0px" y="0px"
	 viewBox="0 0 300 300" style="enable-background:new 0 0 300 300;" xml:space="preserve">
<style type="text/css">
	.st0{fill:#010101;}
	.st1{fill:#FFFFFF;}
	.st2{fill:none;}
</style>
<path class="st0" d="M193.7,271.1h-87.5c-11.2,0-20.3-9.1-20.3-20.3V49.3c0-11.2,9.1-20.3,20.3-20.3h87.5c11.2,0,20.3,9.1,20.3,20.3
	v201.5C214.1,262,204.9,271.1,193.7,271.1z M106.3,35.7c-7.5,0-13.5,6.1-13.5,13.5v201.5c0,7.5,6.1,13.5,13.5,13.5h87.5
	c7.5,0,13.5-6.1,13.5-13.5V49.3c0-7.5-6.1-13.5-13.5-13.5H106.3z"/>
<rect x="89.3" y="224.8" class="st0" width="121.3" height="6.8"/>
<rect x="91.4" y="56.6" class="st0" width="121.3" height="6.8"/>
<path class="st0" d="M153.4,261.5c-7.5,0-13.5-6.1-13.5-13.5s6.1-13.5,13.5-13.5s13.5,6.1,13.5,13.5S160.9,261.5,153.4,261.5z
	 M153.4,241.2c-3.7,0-6.8,3-6.8,6.8s3,6.8,6.8,6.8c3.7,0,6.8-3,6.8-6.8S157.1,241.2,153.4,241.2z"/>
<path class="st0" d="M150,52.1c-3.4,0-6.2-2.8-6.2-6.2s2.8-6.2,6.2-6.2c3.4,0,6.2,2.8,6.2,6.2S153.4,52.1,150,52.1z M150,43
	c-1.6,0-2.8,1.3-2.8,2.8s1.3,2.8,2.8,2.8s2.8-1.3,2.8-2.8S151.6,43,150,43z"/>
</svg>
