<?xml version="1.0" encoding="utf-8"?>
<!-- Generator: Adobe Illustrator 22.0.0, SVG Export Plug-In . SVG Version: 6.00 Build 0)  -->
<svg version="1.1" id="Calque_1" xmlns="http://www.w3.org/2000/svg" xmlns:xlink="http://www.w3.org/1999/xlink" x="0px" y="0px"
	 viewBox="0 0 300 300" style="enable-background:new 0 0 300 300;" xml:space="preserve">
<style type="text/css">
	.st0{fill:#010101;}
	.st1{fill:#FFFFFF;}
	.st2{fill:none;}
</style>
<path d="M149.4,38.7h1.3c22.6,0,43.6,6.6,63.2,19.9c4,2.8,8.2,6.3,12.6,10.4c5.3,5.2,8.7,8.9,10.3,11.1c4.1,5.3,7.2,9.7,9.3,13.4
	c10.1,17.6,15.2,36.2,15.2,55.8v1.3c0,22.6-6.6,43.6-19.9,63.2c-2.8,4-6.3,8.2-10.4,12.6c-5.2,5.3-8.9,8.7-11.1,10.3
	c-5.3,4.1-9.7,7.2-13.4,9.3c-17.6,10.1-36.2,15.2-55.8,15.2h-1.3c-22.6,0-43.6-6.6-63.2-19.9c-4-2.8-8.2-6.3-12.6-10.4
	c-5.3-5.2-8.7-8.9-10.3-11.1c-4.1-5.3-7.2-9.7-9.3-13.4c-10.1-17.6-15.2-36.2-15.2-55.8v-1.3c0-22.6,6.6-43.6,19.9-63.2
	c2.8-4,6.3-8.2,10.4-12.6c5.2-5.3,8.9-8.7,11.1-10.3c5.3-4.1,9.7-7.2,13.4-9.3C111.2,43.8,129.8,38.7,149.4,38.7z M99.6,64
	c-3.4,1.9-7.4,4.7-12,8.4c-2.1,1.4-5.4,4.4-10,9.2c-3.7,4-6.8,7.7-9.3,11.2c-11.9,17.6-17.9,36.5-17.9,56.6v1.3
	c0,17.5,4.5,34.1,13.6,49.8c1.9,3.4,4.7,7.4,8.4,12c1.4,2.1,4.4,5.4,9.2,10c4,3.7,7.7,6.8,11.2,9.3c17.6,11.9,36.5,17.9,56.6,17.9
	h1.3c17.5,0,34.1-4.5,49.8-13.6c3.4-1.9,7.4-4.7,12-8.4c2.1-1.4,5.4-4.4,10-9.2c3.7-4,6.8-7.7,9.3-11.2
	c11.9-17.6,17.9-36.5,17.9-56.6v-1.3c0-17.5-4.5-34.1-13.6-49.8c-1.9-3.4-4.7-7.4-8.4-12c-1.4-2.1-4.4-5.4-9.2-10
	c-4-3.7-7.7-6.8-11.2-9.3c-17.6-11.9-36.5-17.9-56.6-17.9h-1.3C131.9,50.4,115.3,54.9,99.6,64z M152.5,128.5v0.6
	c0,1.7,0.3,3.7,0.8,6h-0.2c-2.1,0-6.2-0.5-12.2-1.4c-5.1-1.2-9.6-2.5-13.6-4.1c-4.2-1.7-8.7-4.1-13.6-7.1c-3.7-2.3-7.8-5.6-12.3-9.8
	c-2.3-2.4-4.5-4.7-6.5-7c-2.4,4.6-3.6,9.2-3.6,13.6v1.1c0,6.1,2.2,12,6.6,17.7c2.2,2.5,4.1,4.2,5.5,5.1v0.2c-3.8,0-8-1.2-12.5-3.5
	v0.8c0,7.4,2.8,14,8.5,19.8c3.6,3.3,6.9,5.4,10,6.3c2,0.7,3.3,1.1,3.8,1.1c0,0.2-1.1,0.5-3.2,0.8c-1.3,0.2-2.2,0.3-2.8,0.3h-0.6
	c-0.2,0-0.4,0-0.5,0h-0.5h-0.2c-1.4,0-3-0.2-4.7-0.5c2.3,6.5,6.2,11.5,11.5,14.9c4.8,3.1,9.7,4.6,14.7,4.6c-2.7,2.3-5.4,4.1-7.9,5.4
	c-8.7,4.4-17.4,6.6-25.9,6.6h-1.9c-1.9,0-3.9-0.1-5.8-0.3c5.3,3.5,11,6.3,17.2,8.4c8.5,3,17.2,4.4,26.1,4.4c14.3,0,27.6-3.3,39.7-10
	c3.9-2.1,8.1-5.1,12.6-9c4.3-3.9,7.3-6.9,8.9-9c3.8-4.6,7-9.4,9.5-14.2c1.8-3.3,3.5-7.1,5.1-11.4c3.1-9.1,4.6-17.6,4.6-25.6v-4.1
	v-0.8c1.6-0.9,4.2-3.2,7.9-6.8c2.6-2.8,4.7-5.4,6.2-7.7H223c-3.6,1.5-7.3,2.7-11.1,3.6c-2.8,0.4-4.4,0.6-4.7,0.6v-0.2
	c1.2-0.4,3.1-1.9,5.8-4.6c3.2-3.7,5.3-7.3,6.3-10.7c-3.7,2.2-7.5,4-11.5,5.2c-3.6,1.1-5.7,1.6-6.5,1.6c-2.6-2.5-4.6-4.1-6-4.7
	c-4.5-2.7-9.3-4.1-14.4-4.1h-0.2c-7.5,0-14.1,2.7-19.8,8.1C155.4,114.4,152.5,121,152.5,128.5z"/>
</svg>
