<?xml version="1.0" encoding="utf-8"?>
<!-- Generator: Adobe Illustrator 22.0.0, SVG Export Plug-In . SVG Version: 6.00 Build 0)  -->
<svg version="1.1" id="Calque_1" xmlns="http://www.w3.org/2000/svg" xmlns:xlink="http://www.w3.org/1999/xlink" x="0px" y="0px"
	 viewBox="0 0 300 300" style="enable-background:new 0 0 300 300;" xml:space="preserve">
<style type="text/css">
	.st0{fill:#010101;}
	.st1{fill:#FFFFFF;}
	.st2{fill:none;}
</style>
<g>
	<path class="st2" d="M245.5,153.6c11,0,20.1-12,21.6-27.5c-1,0.2-2.2,0.7-3.5,1.6c0,0,2.5-14.6-2.7-16.7c0,0-7.2,3.5-15.4,3.7
		c-8.2-0.2-15.4-3.7-15.4-3.7c-5.2,2.1-2.7,16.7-2.7,16.7c-1.3-0.9-2.5-1.4-3.5-1.6C225.3,141.6,234.4,153.6,245.5,153.6z"/>
	<path class="st2" d="M54.5,153.6c11,0,20.1-12,21.6-27.5c-1,0.2-2.2,0.7-3.5,1.6c0,0,2.5-14.6-2.7-16.7c0,0-7.2,3.5-15.4,3.7
		c-8.2-0.2-15.4-3.7-15.4-3.7c-5.2,2.1-2.7,16.7-2.7,16.7c-1.3-0.9-2.5-1.4-3.5-1.6C34.4,141.6,43.5,153.6,54.5,153.6z"/>
	<path class="st2" d="M150,154.6c14.2,0,25.9-15.4,27.7-35.4c-1.2,0.3-2.8,0.9-4.4,2.1c0,0,3.2-18.8-3.5-21.4c0,0-9.2,4.5-19.8,4.8
		c-10.5-0.3-19.8-4.8-19.8-4.8c-6.7,2.6-3.5,21.4-3.5,21.4c-1.7-1.2-3.2-1.8-4.4-2.1C124.1,139.2,135.8,154.6,150,154.6z"/>
	<path class="st0" d="M220.8,125.2c0,0.2,0,0.5,0.1,0.7c1.6,17.8,12,31.5,24.6,31.5c12.6,0,23-13.7,24.6-31.5c0-0.2,0-0.5,0.1-0.7
		c0.1-0.8,0.2-1.5,0.2-2.3c0-0.5,0.1-1.1,0.1-1.6c0-1.4-0.1-2.7-0.3-4c-1.8-12.6-12.2-22.3-24.6-22.3s-22.8,9.7-24.6,22.3
		c-0.2,1.3-0.3,2.6-0.3,4c0,0.5,0,1.1,0.1,1.6C220.6,123.6,220.7,124.4,220.8,125.2z M230.1,111c0,0,7.2,3.5,15.4,3.7
		c8.2-0.2,15.4-3.7,15.4-3.7c5.2,2.1,2.7,16.7,2.7,16.7c1.3-0.9,2.5-1.4,3.5-1.6c-1.4,15.5-10.5,27.5-21.6,27.5
		c-11,0-20.1-12-21.6-27.5c1,0.2,2.2,0.7,3.5,1.6C227.4,127.7,224.9,113.1,230.1,111z"/>
	<path class="st0" d="M267,154.2c-0.1,0-0.1,0-0.2,0c-0.5-0.1-0.9-0.1-1.4-0.2c0,0,0,0.1,0,0.1c0,0.1,0,0.3,0,0.4
		c-0.1,0.8-0.3,1.5-0.7,2.2c-2.4,6.1-10.3,17.7-14.9,24.2l-1-13.6c1.3-0.7,2.5-1.8,3.3-3.2c0.5-1,0.9-2,0.9-3.1c0,0-3.4,1.5-7,1.5
		c-0.2,0-0.4,0-0.6,0c-0.2,0-0.4,0-0.6,0c-3.5,0-7-1.5-7-1.5c0,1.1,0.3,2.1,0.9,3.1c0.7,1.3,1.9,2.5,3.3,3.2l-1,13.6
		c-4.6-6.6-12.5-18.1-14.9-24.2c-0.4-0.7-0.6-1.5-0.7-2.2c0-0.1,0-0.3-0.1-0.4c0-0.1,0-0.1,0-0.1c-0.5,0-0.9,0.1-1.4,0.2
		c-0.1,0-0.1,0-0.2,0c-7.7,1.1-14.6,4.8-19.6,10.3c0.6,0.5,1.1,1.1,1.6,1.7c7.9,8.6,12.3,19.8,12.3,31.5c0,2.6-0.2,5-0.7,7.2
		c3.4,0.2,7.1,0.2,11,0.2h17h17c18.2,0,33,0,33-18.2C295.4,170.2,283.1,156.4,267,154.2z"/>
	<path class="st0" d="M29.9,125.2c0,0.2,0,0.5,0.1,0.7c1.6,17.8,12,31.5,24.6,31.5s23-13.7,24.6-31.5c0-0.2,0-0.5,0.1-0.7
		c0.1-0.8,0.2-1.5,0.2-2.3c0-0.5,0.1-1.1,0.1-1.6c0-1.4-0.1-2.7-0.3-4C77.3,104.6,67,95,54.5,95s-22.8,9.7-24.6,22.3
		c-0.2,1.3-0.3,2.6-0.3,4c0,0.5,0,1.1,0.1,1.6C29.7,123.6,29.8,124.4,29.9,125.2z M39.1,111c0,0,7.2,3.5,15.4,3.7
		c8.2-0.2,15.4-3.7,15.4-3.7c5.2,2.1,2.7,16.7,2.7,16.7c1.3-0.9,2.5-1.4,3.5-1.6c-1.4,15.5-10.5,27.5-21.6,27.5s-20.1-12-21.6-27.5
		c1,0.2,2.2,0.7,3.5,1.6C36.4,127.7,33.9,113.1,39.1,111z"/>
	<path class="st0" d="M94.1,166.2c0.5-0.6,1.1-1.1,1.6-1.7c-5-5.5-11.9-9.2-19.6-10.3c-0.1,0-0.1,0-0.2,0c-0.5-0.1-0.9-0.1-1.4-0.2
		c0,0,0,0.1,0,0.1c0,0.1,0,0.3,0,0.4c-0.1,0.8-0.3,1.5-0.7,2.2c-2.4,6.1-10.3,17.7-14.9,24.2l-1-13.6c1.3-0.7,2.5-1.8,3.3-3.2
		c0.5-1,0.9-2,0.9-3.1c0,0-3.4,1.5-7,1.5c-0.2,0-0.4,0-0.6,0c-0.2,0-0.4,0-0.6,0c-3.5,0-7-1.5-7-1.5c0,1.1,0.3,2.1,0.9,3.1
		c0.7,1.3,1.9,2.5,3.3,3.2l-1,13.6c-4.6-6.6-12.5-18.1-14.9-24.2c-0.4-0.7-0.6-1.5-0.7-2.2c0-0.1,0-0.3,0-0.4c0-0.1,0-0.1,0-0.1
		c-0.5,0-0.9,0.1-1.4,0.2c-0.1,0-0.1,0-0.2,0c-16,2.2-28.4,16-28.4,32.7c0,18.2,14.8,18.2,33,18.2h17h17c3.8,0,7.5,0,11-0.2
		c-0.4-2.2-0.7-4.6-0.7-7.2C81.8,186,86.2,174.8,94.1,166.2z"/>
	<path class="st0" d="M175.4,156c-0.2,7.6-11.5,13.8-25.4,13.8s-25.3-6.2-25.4-13.8c-21.3,2-38,19.9-38,41.7
		c0,23,18.6,23.1,41.5,23.1c0.1,0,0.2,0,0.3,0h43.1c0.1,0,0.2,0,0.3,0c23,0,41.5-0.1,41.5-23.1C213.5,175.8,196.7,157.9,175.4,156z"
		/>
	<path class="st0" d="M118.3,118.1c0,0.3,0,0.6,0.1,0.9c2,22.9,15.4,40.5,31.6,40.5c16.2,0,29.6-17.7,31.6-40.5
		c0-0.3,0.1-0.6,0.1-0.9c0.1-1,0.2-2,0.3-3c0-0.7,0.1-1.4,0.1-2.1c0-1.7-0.1-3.5-0.4-5.1C179.3,91.7,166,79.2,150,79.2
		s-29.3,12.4-31.7,28.6c-0.2,1.7-0.4,3.4-0.4,5.1c0,0.7,0,1.4,0.1,2.1C118.1,116.1,118.2,117.1,118.3,118.1z M130.2,99.9
		c0,0,9.2,4.5,19.8,4.8c10.5-0.3,19.8-4.8,19.8-4.8c6.7,2.6,3.5,21.4,3.5,21.4c1.7-1.2,3.2-1.8,4.4-2.1c-1.8,20-13.5,35.4-27.7,35.4
		c-14.2,0-25.9-15.4-27.7-35.4c1.2,0.3,2.8,0.9,4.4,2.1C126.7,121.3,123.5,102.5,130.2,99.9z"/>
</g>
</svg>
